<svg width="32px" height="32px" viewBox="0 0 500 500" xmlns="http://www.w3.org/2000/svg">
<!-- 
  Original: https://fontawesome.com/icons/person-biking?f=classic&s=solid
  Original license: Font Awesome Free 6.5.1 by @fontawesome - https://fontawesome.com License - https://fontawesome.com/license/free Copyright 2023 Fonticons, Inc.
  Modification: Replaced head with full-face helmet
-->
<path d="M 326.673 181.268 L 282.472 146.363 C 270.098 136.636 252.647 136.493 240.2 146.149 L 180.764 192.068 C 158.806 209.091 160.379 242.708 183.839 257.584 L 227.112 285.05 L 227.112 364.371 C 227.112 377.031 237.339 387.26 249.999 387.26 C 262.66 387.26 272.888 377.031 272.888 364.371 L 272.888 272.82 C 272.888 265.166 269.096 258.013 262.731 253.794 L 232.118 233.409 L 275.248 198.72 L 304.359 222.036 C 308.436 225.255 313.442 227.044 318.663 227.044 L 364.439 227.044 C 377.099 227.044 387.326 216.815 387.326 204.155 C 387.326 191.496 377.099 181.268 364.439 181.268 L 326.673 181.268 Z M 61.174 341.484 C 61.174 301.84 104.089 277.063 138.421 296.885 C 154.355 306.083 164.17 323.085 164.17 341.484 C 164.17 381.127 121.256 405.903 86.922 386.082 C 70.99 376.882 61.174 359.882 61.174 341.484 Z M 204.223 341.484 C 204.223 271.006 127.931 226.958 66.896 262.196 C 38.569 278.55 21.12 308.775 21.12 341.484 C 21.12 411.96 97.413 456.007 158.447 420.769 C 186.774 404.415 204.223 374.191 204.223 341.484 Z M 335.83 341.484 C 335.83 301.84 378.744 277.063 413.076 296.885 C 429.01 306.083 438.825 323.085 438.825 341.484 C 438.825 381.127 395.91 405.903 361.578 386.082 C 345.645 376.882 335.83 359.882 335.83 341.484 Z M 478.879 341.484 C 478.879 271.006 402.586 226.958 341.552 262.196 C 313.225 278.55 295.776 308.775 295.776 341.484 C 295.776 411.96 372.069 456.007 433.102 420.769 C 461.43 404.415 478.879 374.191 478.879 341.484 Z M 375.909 23.144 C 375.995 27.98 375.412 30.344 372.389 34.156 C 367.211 38.307 360.494 39.715 354.194 41.495 C 350.87 42.439 347.581 43.484 344.284 44.519 C 342.493 45.063 340.701 45.606 338.909 46.144 C 339.281 46.796 339.654 47.449 340.038 48.121 C 343.891 55.24 343.891 55.24 343.971 59.394 C 341.637 65.435 338.589 69.002 332.909 72.144 C 331.919 72.144 330.929 72.144 329.909 72.144 C 330.114 72.787 330.319 73.431 330.53 74.093 C 333.495 84.037 334.721 93.874 332.909 104.144 C 334.889 104.639 334.889 104.639 336.909 105.144 C 336.909 105.804 336.909 106.464 336.909 107.144 C 337.61 107.412 338.311 107.68 339.034 107.957 C 341.909 109.144 341.909 109.144 344.428 110.773 C 349.335 112.706 353.329 111.961 358.471 111.269 C 360.326 111.036 362.181 110.809 364.038 110.59 C 364.853 110.481 365.668 110.373 366.509 110.262 C 370.402 110.071 373.096 110.566 376.284 112.832 C 377.909 115.144 377.909 115.144 377.909 118.269 C 376.909 121.144 376.909 121.144 374.846 122.519 C 373.887 122.829 373.887 122.829 372.909 123.144 C 372.909 124.134 372.909 125.124 372.909 126.144 C 371.919 126.804 370.929 127.464 369.909 128.144 C 368.507 132.789 368.888 137.59 369.534 142.332 C 370.054 146.795 369.761 149.464 366.909 153.144 C 362.275 155.485 359.412 155.1 354.693 153.593 C 353.501 153.185 353.501 153.185 352.284 152.769 C 350.503 152.198 348.722 151.629 346.94 151.062 C 345.977 150.752 345.014 150.442 344.022 150.122 C 338.309 148.328 332.545 146.714 326.784 145.082 C 325.584 144.74 324.384 144.398 323.148 144.046 C 315.184 141.78 307.212 139.544 299.229 137.347 C 290.783 135.01 282.367 132.563 273.944 130.144 C 272.801 129.817 271.659 129.49 270.481 129.152 C 268.081 128.463 265.682 127.769 263.284 127.072 C 255.661 124.867 255.661 124.867 247.94 123.054 C 238.971 121.181 238.971 121.181 236.12 118.398 C 234.706 116.035 233.825 113.741 232.909 111.144 C 231.891 108.872 230.87 106.601 229.846 104.332 C 227.213 98.021 224.709 91.747 222.909 85.144 C 222.557 83.895 222.557 83.895 222.198 82.621 C 219.843 70.072 228.245 54.376 234.909 44.144 C 235.568 43.059 235.568 43.059 236.241 41.953 C 242.722 32.941 255.735 29.512 266.193 27.578 C 271.31 26.761 276.449 26.164 281.596 25.582 C 283.767 25.331 285.937 25.08 288.108 24.828 C 289.529 24.666 289.529 24.666 290.978 24.501 C 293.109 24.242 295.235 23.943 297.358 23.621 C 300.768 23.163 304.084 22.942 307.522 22.828 C 309.38 22.765 309.38 22.765 311.275 22.7 C 312.577 22.661 313.879 22.622 315.221 22.582 C 315.894 22.561 316.567 22.54 317.26 22.519 C 336.873 21.914 356.302 22.323 375.909 23.144 Z" style="fill: rgb(160, 160, 160);" />
<path d="M 361.909 136.144 C 363.909 137.144 363.909 137.144 363.909 137.144 L 361.909 136.144 Z" fill="#B1B1B1" />
<path d="M 326.909 119.144 C 328.909 120.144 328.909 120.144 328.909 120.144 L 326.909 119.144 Z" fill="#D2D2D2" />
</svg>