<?xml version="1.0" encoding="utf-8"?>
<svg width="32px" height="32px" viewBox="0 0 500 500" xmlns="http://www.w3.org/2000/svg">
    <path fill="#a0a0a0" d="M 60.197 54.514 C 60.197 37.988 46.845 24.636 30.319 24.636 C 13.793 24.636 0.441 37.988 0.441 54.514 L 0.441 424.544 C 0.441 465.813 33.867 499.239 75.136 499.239 L 448.611 499.239 C 465.137 499.239 478.489 485.887 478.489 469.361 C 478.489 452.834 465.137 439.483 448.611 439.483 L 75.136 439.483 C 66.92 439.483 60.197 432.76 60.197 424.544 L 60.197 54.514 Z M 439.834 191.682" style=""/>
    <path style="stroke: rgb(160, 160, 160); fill: none; stroke-width: 39px; stroke-linecap: round;" d="M 89.181 99.354 C 133.746 273.159 190.084 414.125 409.658 408.237"/>
    <text style="fill: rgb(160, 160, 160); font-family: Monos, sans-serif; font-size: 150px; font-weight: 800; white-space: pre;" x="220.63" y="262.244">LR</text>
</svg>